<svg xmlns="http://www.w3.org/2000/svg" width="30.862" height="29.111" viewBox="0 0 30.862 29.111"><defs><style>.a{fill:#e6494f;}</style></defs><g transform="translate(-0.001 -14.52)"><g transform="translate(0.001 14.519)"><path class="a" d="M30.237,36.827,19.323,16.734a4.526,4.526,0,0,0-7.784,0l-.018.032L.643,36.8a4.524,4.524,0,0,0,3.891,6.836H26.267a4.573,4.573,0,0,0,3.995-2.287A4.461,4.461,0,0,0,30.237,36.827ZM13.621,23.719a1.81,1.81,0,0,1,3.62,0V30.96a1.81,1.81,0,1,1-3.62,0V23.719Zm1.81,16.292A2.715,2.715,0,1,1,18.146,37.3,2.718,2.718,0,0,1,15.431,40.011Z" transform="translate(-0.001 -14.519)"/></g></g></svg>