<svg xmlns="http://www.w3.org/2000/svg" width="92.006" height="21.137" viewBox="0 0 92.006 21.137"><defs><style>.a{fill:#fff;stroke:rgba(0,0,0,0);}</style></defs><path class="a" d="M301.37-11148.863v-13.8A6.336,6.336,0,0,1,307.7-11169h7.47a6.333,6.333,0,0,1,6.332,6.335v7.471a6.331,6.331,0,0,1-6.332,6.332Zm-23.624,0v-13.8a6.336,6.336,0,0,1,6.335-6.335h7.47a6.333,6.333,0,0,1,6.332,6.335v7.471a6.331,6.331,0,0,1-6.332,6.332Zm-23.621,0v-13.8a6.333,6.333,0,0,1,6.332-6.335h7.47a6.336,6.336,0,0,1,6.335,6.335v7.471a6.333,6.333,0,0,1-6.335,6.332Zm1.973-13.8v11.829h11.829a4.364,4.364,0,0,0,4.362-4.358v-7.471a4.367,4.367,0,0,0-4.362-4.361h-7.47A4.364,4.364,0,0,0,256.1-11162.666Zm-25.6,13.8v-13.8a6.333,6.333,0,0,1,6.332-6.335h7.473a6.335,6.335,0,0,1,6.332,6.335v7.471a6.333,6.333,0,0,1-6.332,6.332Zm28-9.89a5.339,5.339,0,0,1,5.43-5.244,5.339,5.339,0,0,1,5.43,5.244,5.338,5.338,0,0,1-5.43,5.242A5.338,5.338,0,0,1,258.5-11158.753Zm2.929-.165-.521.586a.377.377,0,0,0,.045.544l1.976,1.637a.405.405,0,0,0,.258.093.153.153,0,0,0,.036,0,.412.412,0,0,0,.275-.138l3.38-3.972a.377.377,0,0,0-.056-.544l-.619-.49a.411.411,0,0,0-.563.053l-2.6,3.056-1.043-.863a.415.415,0,0,0-.261-.093A.41.41,0,0,0,261.429-11158.918Z" transform="translate(-230 11169.5)"/></svg>