<svg xmlns="http://www.w3.org/2000/svg" viewBox="0 0 15 15"><path fill="#818181" d="M14.121 8.015V6.621a.439.439 0 00-.439-.439 13.257 13.257 0 00-2.554.233 3.968 3.968 0 00-1.65-.955 3.076 3.076 0 10-3.956 0 3.968 3.968 0 00-1.65.955 13.259 13.259 0 00-2.554-.233.439.439 0 00-.439.439v1.394A1.32 1.32 0 000 9.258v.879a1.32 1.32 0 00.879 1.243v1.394a.439.439 0 00.439.439 10.227 10.227 0 015.938 1.713.441.441 0 00.488 0 10.227 10.227 0 015.938-1.713.439.439 0 00.439-.439v-1.395A1.32 1.32 0 0015 10.137v-.879a1.321 1.321 0 00-.879-1.243zM5.3 3.105a2.2 2.2 0 112.2 2.2 2.215 2.215 0 01-2.2-2.2zm-3.982 7.471a.44.44 0 01-.439-.439v-.879a.44.44 0 01.879 0v.879a.44.44 0 01-.44.439zm5.742 3.2a11 11 0 00-5.3-1.432v-.961a1.32 1.32 0 00.879-1.243v-.882a1.32 1.32 0 00-.879-1.243v-.948a9.933 9.933 0 015.3 1.55zm.44-5.92A10.444 10.444 0 004.943 6.68a3.083 3.083 0 011.678-.5h1.758a3.083 3.083 0 011.678.5A10.443 10.443 0 007.5 7.856zm5.742 4.485a11 11 0 00-5.3 1.432V8.617a9.932 9.932 0 015.3-1.551v.948a1.32 1.32 0 00-.879 1.243v.879a1.32 1.32 0 00.879 1.243zm.879-2.2a.44.44 0 11-.879 0v-.883a.44.44 0 11.879 0z"/></svg>